<mxfile host="Electron" modified="2024-08-02T16:01:45.999Z" agent="Mozilla/5.0 (X11; Linux x86_64) AppleWebKit/537.36 (KHTML, like Gecko) draw.io/24.5.3 Chrome/124.0.6367.207 Electron/30.0.6 Safari/537.36" etag="nXFZrLW0SUdPb5sn-F47" version="24.5.3" type="device">
  <diagram name="Page-1" id="BrFeJNM9OYTzUT6qCuRu">
    <mxGraphModel dx="1958" dy="1322" grid="1" gridSize="10" guides="1" tooltips="1" connect="1" arrows="1" fold="1" page="1" pageScale="1" pageWidth="827" pageHeight="1169" math="0" shadow="0">
      <root>
        <mxCell id="0" />
        <mxCell id="1" parent="0" />
        <mxCell id="GH6rLCk8eAP0G_dlO_Zs-1" value="" style="endArrow=none;html=1;rounded=0;" edge="1" parent="1" source="GH6rLCk8eAP0G_dlO_Zs-5">
          <mxGeometry width="50" height="50" relative="1" as="geometry">
            <mxPoint x="160" y="240" as="sourcePoint" />
            <mxPoint x="680" y="760" as="targetPoint" />
          </mxGeometry>
        </mxCell>
        <mxCell id="GH6rLCk8eAP0G_dlO_Zs-6" value="" style="endArrow=none;html=1;rounded=0;" edge="1" parent="1" source="GH6rLCk8eAP0G_dlO_Zs-11" target="GH6rLCk8eAP0G_dlO_Zs-5">
          <mxGeometry width="50" height="50" relative="1" as="geometry">
            <mxPoint x="160" y="240" as="sourcePoint" />
            <mxPoint x="680" y="760" as="targetPoint" />
          </mxGeometry>
        </mxCell>
        <mxCell id="GH6rLCk8eAP0G_dlO_Zs-5" value="=" style="ellipse;whiteSpace=wrap;html=1;aspect=fixed;fontStyle=1;fontFamily=Courier New;fontSize=16;fillColor=#dae8fc;strokeColor=#6c8ebf;" vertex="1" parent="1">
          <mxGeometry x="530" y="610" width="20" height="20" as="geometry" />
        </mxCell>
        <mxCell id="GH6rLCk8eAP0G_dlO_Zs-9" value="&amp;gt;" style="ellipse;whiteSpace=wrap;html=1;aspect=fixed;fontStyle=1;fontFamily=Courier New;fontSize=16;" vertex="1" parent="1">
          <mxGeometry x="580" y="560" width="20" height="20" as="geometry" />
        </mxCell>
        <mxCell id="GH6rLCk8eAP0G_dlO_Zs-10" value="&amp;lt;" style="ellipse;whiteSpace=wrap;html=1;aspect=fixed;fontStyle=1;fontFamily=Courier New;fontSize=16;" vertex="1" parent="1">
          <mxGeometry x="480" y="660" width="20" height="20" as="geometry" />
        </mxCell>
        <mxCell id="GH6rLCk8eAP0G_dlO_Zs-12" value="" style="endArrow=none;html=1;rounded=0;" edge="1" parent="1" target="GH6rLCk8eAP0G_dlO_Zs-11">
          <mxGeometry width="50" height="50" relative="1" as="geometry">
            <mxPoint x="400" y="480" as="sourcePoint" />
            <mxPoint x="533" y="613" as="targetPoint" />
          </mxGeometry>
        </mxCell>
        <mxCell id="GH6rLCk8eAP0G_dlO_Zs-11" value="&amp;lt;" style="ellipse;whiteSpace=wrap;html=1;aspect=fixed;fontStyle=1;fontFamily=Courier New;fontSize=16;" vertex="1" parent="1">
          <mxGeometry x="480" y="560" width="20" height="20" as="geometry" />
        </mxCell>
        <mxCell id="GH6rLCk8eAP0G_dlO_Zs-13" value="&amp;gt;" style="ellipse;whiteSpace=wrap;html=1;aspect=fixed;fontStyle=1;fontFamily=Courier New;fontSize=16;" vertex="1" parent="1">
          <mxGeometry x="580" y="660" width="20" height="20" as="geometry" />
        </mxCell>
      </root>
    </mxGraphModel>
  </diagram>
</mxfile>
